
<svg width="142" height="32" viewBox="0 0 142 32" fill="none" xmlns="http://www.w3.org/2000/svg">
  <path d="M21.104 3.648C23.936 3.648 26.144 4.224 27.728 5.376C29.344 6.496 30.152 8.16 30.152 10.368C30.152 11.776 29.768 12.936 29 13.848C28.264 14.76 27.224 15.352 25.88 15.624C27.4 15.896 28.568 16.52 29.384 17.496C30.232 18.472 30.656 19.784 30.656 21.432C30.656 23.672 29.816 25.384 28.136 26.568C26.488 27.72 24.2 28.296 21.272 28.296H8.584V3.648H21.104ZM20.72 13.536C22.176 13.536 23.28 13.256 24.032 12.696C24.784 12.136 25.16 11.304 25.16 10.2C25.16 9.096 24.784 8.288 24.032 7.776C23.28 7.232 22.176 6.96 20.72 6.96H13.48V13.536H20.72ZM20.984 24.984C22.504 24.984 23.664 24.696 24.464 24.12C25.296 23.512 25.712 22.608 25.712 21.408C25.712 20.208 25.296 19.304 24.464 18.696C23.664 18.088 22.504 17.784 20.984 17.784H13.48V24.984H20.984Z" fill="black"/>
  <path d="M49.0509 28.296V17.448H39.7949V28.296H34.8989V3.648H39.7949V13.296H49.0509V3.648H53.9469V28.296H49.0509Z" fill="black"/>
  <path d="M75.9385 15.984C75.9385 16.32 75.9145 16.68 75.8665 17.064H59.0425C59.1865 18.552 59.7305 19.696 60.6745 20.496C61.6185 21.296 62.7945 21.696 64.2025 21.696C66.1865 21.696 67.6425 21 68.5705 19.608H75.2905C74.7385 21.352 73.8105 22.88 72.5065 24.192C71.2345 25.472 69.6905 26.464 67.8745 27.168C66.0585 27.872 64.0745 28.224 61.9225 28.224C59.2985 28.224 56.9705 27.672 54.9385 26.568C52.9065 25.464 51.3145 23.896 50.1625 21.864C49.0105 19.832 48.4345 17.48 48.4345 14.808C48.4345 12.136 49.0105 9.784 50.1625 7.752C51.3145 5.72 52.9065 4.16 54.9385 3.072C56.9705 1.952 59.2985 1.392 61.9225 1.392C64.4825 1.392 66.7625 1.936 68.7625 3.024C70.7625 4.112 72.3385 5.64 73.4905 7.608C74.6745 9.576 75.2825 11.816 75.2905 14.328C75.2905 14.84 75.1705 15.392 74.9305 15.984H75.9385ZM69.8825 13.056C69.8825 11.76 69.4425 10.736 68.5625 9.984C67.6825 9.2 66.5945 8.808 65.2985 8.808C63.9705 8.808 62.8505 9.192 61.9385 9.96C61.0585 10.728 60.5305 11.76 60.3545 13.056H69.8825Z" fill="black"/>
  <path d="M88.0899 21.576L94.1859 9.768H89.2179L85.3139 18.12L81.3379 9.768H76.3699L82.5139 21.72L76.3699 33H81.3379L85.3139 25.152L89.1939 33H94.1859L88.0899 21.576Z" fill="black"/>
  <path d="M111.8 17.04C113.672 17.424 115.096 18.184 116.072 19.32C117.048 20.456 117.536 21.888 117.536 23.616C117.536 26.032 116.624 27.896 114.8 29.208C112.976 30.488 110.424 31.128 107.144 31.128C104.696 31.128 102.568 30.728 100.76 29.928C98.984 29.096 97.6 27.96 96.608 26.52C95.616 25.08 95.12 23.44 95.12 21.6H100.064C100.064 22.752 100.472 23.68 101.288 24.384C102.104 25.088 103.264 25.44 104.768 25.44C106.144 25.44 107.216 25.152 107.984 24.576C108.784 24 109.184 23.224 109.184 22.248C109.184 21.384 108.888 20.736 108.296 20.304C107.704 19.872 106.728 19.656 105.368 19.656H102.944V14.832H105.368C106.648 14.832 107.584 14.608 108.176 14.16C108.768 13.712 109.064 13.056 109.064 12.192C109.064 11.296 108.72 10.6 108.032 10.104C107.376 9.608 106.464 9.36 105.296 9.36C103.92 9.36 102.848 9.688 102.08 10.344C101.312 10.968 100.928 11.808 100.928 12.864H96.008C96.008 11.152 96.44 9.648 97.304 8.352C98.2 7.056 99.448 6.064 101.048 5.376C102.68 4.656 104.52 4.296 106.568 4.296C109.592 4.296 111.96 4.928 113.672 6.192C115.416 7.424 116.288 9.12 116.288 11.28C116.288 12.752 115.864 13.992 115.016 15C114.2 15.976 113.096 16.656 111.704 17.04H111.8Z" fill="black"/>
  <path d="M135.991 3.648V28.296H131.095V7.848H124.639V12.432C124.639 16.288 124.159 19.248 123.199 21.312C122.271 23.344 120.727 24.904 118.567 25.992L116.863 22.032C118.159 21.352 119.055 20.328 119.551 18.96C120.079 17.56 120.343 15.432 120.343 12.576V3.648H135.991Z" fill="black"/>
  <path d="M127.832 28.296L134.168 21.312L140.408 28.296H142V1.776H127.352V3.144L138.32 3.696L132.608 10.248L126.464 3.648H124.872V30.168H139.52V28.8L128.552 28.248L134.264 21.696L140.408 28.296H127.832Z" fill="#F04040"/>
</svg>
